<svg width="140" height="130" xmlns="http://www.w3.org/2000/svg" dominant-baseline="auto">
 <defs>
  <linearGradient id="grad1">
   <stop stop-color="#8fd2f9" stop-opacity="0.2" offset="0%"/>
   <stop stop-opacity="0.8" stop-color="#42b883" offset="80%"/>
  </linearGradient>
 </defs>
 <g>
  <title>gin-vue-admin</title>
  <path id="svg_1" fill-opacity="0" stroke-width="3" stroke="url(#grad1)" d="m66.73632,47.46269l4.15637,7.74183l22.42819,40.68181l-86.04819,-0.68181l3.83,6.64a7.18,7.18 0 0 0 6.17,3.61l90.67,0a2.14,2.14 0 0 0 1.86,-3.22l-37.16637,-64.50729l-5.9,9.73546z"/>
  <path id="svg_2" fill="#8fd2f9" d="m65.11087,7.9545l-39.30079,69.30615l-3.11011,0.03023l58.45454,-0.22727l6.58181,11.8109l-78.56181,0a2.15,2.15 0 0 1 -1.86,-3.22l42.79,-74.12a7.18,7.18 0 0 1 6.21,-3.58c2.55334,0 6.24303,0 8.79636,0z"/>
  <path id="svg_3" fill="#42b883" d="m48.21723,77.28087l27.26352,-46.8107l-1.42532,1.13613l44.56637,76.12093l5.4209,-7.56909a7.18,7.18 0 0 0 0,-7.16l-43.86,-76l-4,-7a2.15,2.15 0 0 0 -3.72,0l-39,67.47l14.75453,-0.18727z"/>
 </g>
</svg>
