<svg version="1.2" xmlns="http://www.w3.org/2000/svg" viewBox="0 0 1552 932" width="1552" height="932"><style>.a{fill:#093e9b}</style><path fill-rule="evenodd" class="a" d="m1038.5 671.2q-6.2 15.3-15.5 27.2-10.3 12.6-24.1 21.2-13.8 8.8-31 13.1-16.9 4.3-37.4 4.3-32.4 0-56.5-9.8-24.1-9.7-39.8-29-12.4-15.8-18.6-35.3-6.2-19.6-6.2-43.2 0-28.1 8.1-50.3 8.1-22.1 24.5-38.1 16.2-16 36.8-24.1 20.5-8.1 45.2-8.1c82.3 0 115.7 60.3 114.2 135.9l-0.2 2.4h-157.1q0.5 11.2 4 20 3.6 9.8 10.8 16.7 7.1 6.9 16 10.5 8.8 3.3 19.5 3.3 7.2 0 13.4-1.7 5.9-1.9 10.7-5.2 4.7-3.6 8.3-9.3 3.1-4.8 5.5-11zm-156.6-74.8h91.8c-1.2-19.3-9.1-36.7-28.2-44.3q-8.1-3.1-17.4-3.1-10.2 0-18.3 3.3-8.4 3.3-15.1 10-6.4 6.7-9.5 15.7-3.1 8.4-3.3 18.4zm330.4-93.9v65.1c-45.5-10.8-68.7 6.6-71.3 45.7q-1.4 18.6-1.4 47v71h-69.4v-227.4h64.9v26.5q5.4-7.4 10.4-12.7 7.2-7.6 13.6-11.4 6.7-3.6 13.9-5.5 7.4-1.7 15.5-1.7 11.4 0 22.4 2.9zm43.2 408.3c-24.2 0-43.7-19.5-43.7-43.6 0-24.1 19.5-43.6 43.7-43.6 24.2 0 43.8 19.5 43.8 43.6 0 24.1-19.6 43.6-43.8 43.6zm218.3-154.9c1.2 29.5-21.7 54.6-51.3 55.8-29.5 1.2-54.6-21.7-55.7-51.3-1.2-29.5 21.7-54.3 51.2-55.8 29.6-1.2 54.6 21.7 55.8 51.3z"/><path fill-rule="evenodd" class="a" d="m1480.8 559c-38.9 0-70.4-31.5-70.4-70.5 0-38.9 31.5-70.4 70.4-70.4 39 0 70.5 31.5 70.5 70.4 0 39-31.5 70.5-70.5 70.5zm-159.9-265.1c-50.7 0-91.7-40.9-91.7-91.5 0-50.6 41-91.6 91.7-91.6 50.7 0 91.6 41 91.6 91.6 0 50.6-40.9 91.5-91.6 91.5zm-389.8-73.7c-60.9 0-110-49.1-110-109.8 0-60.8 49.1-109.9 110-109.9 60.8 0 110 49.1 110 109.9 0 60.7-49.2 109.8-110 109.8zm-373 347.6q1 10 1 23.1v140.4h-69.4v-115.8q0-17.9-1.2-29.4-1-11.4-2.9-16.2-1.9-5-5.2-8.8-3.1-3.8-7.4-6.4-4.5-2.9-9.8-4.3-5.2-1.4-11.7-1.4-8.1 0-15.5 2.1-7.1 1.9-13.6 6-6.4 4-10.7 9.3-4.5 5.2-6.9 11.6-2.4 6.7-3.6 19.1-1.2 12.6-1.2 31.2v103h-69.6v-227.4h64.9v28.8q14.8-15.7 32.9-24 20.7-9.6 45.7-9.6 11 0 21 1.9 10 1.7 19.3 5.3 9.1 3.8 16.2 8.3 7 4.6 11.7 10.3 4.8 5.7 8.1 12.1 3.4 6.5 5.3 13.6 1.6 7.2 2.6 17.2zm-248.9 163.5h-77.7l-0.5-1.4-22.2-68.4h-108.2l-21.9 68.4-0.5 1.4h-77.7l1.2-3.3 105.8-304.2h94.7l105.8 304.2zm-118.5-126.6l-33.8-104.9h-4.3l-33.9 104.9z"/><path fill-rule="evenodd" class="a" d="m737.4 731.3l-57-92.5-19.8 20v72.5h-69.4v-307.5h69.4v154.9l71.8-74.1 0.7-0.7h86.5l-4 4.1-89.7 86.5 87.1 136.8zm-720 66.5v131.1h-16.9v-131.1z"/><path fill-rule="evenodd" class="a" d="m68.2 860.3c0-9.8-0.3-17.9-1-25.6h15.3l0.9 15.5h0.5c4.5-9 15.5-17.6 31-17.6 13.1 0 33.4 7.6 33.4 40v56.3h-17.2v-54.3c0-15.3-5.7-27.9-21.7-27.9-11.4 0-20 8.1-23.1 17.6-0.7 2.2-1.2 5-1.2 7.9v56.7h-16.9zm127.5 0c0-9.8-0.2-17.9-0.7-25.5h15.3l0.9 15.5h0.3c4.7-9.1 15.7-17.6 31.2-17.6 13.1 0 33.4 7.6 33.4 40v56.2h-17.2v-54.3c0-15.3-5.7-27.9-21.9-27.9-11.2 0-20.1 8.1-22.9 17.7-0.7 2.1-1.2 5-1.2 7.8v56.7h-17.2zm213.2 20.8c0 34.8-24.4 49.8-47 49.8-25.5 0-45.3-18.6-45.3-48.4 0-31.4 20.7-49.8 46.7-49.8 27.2 0 45.6 19.5 45.6 48.4zm-74.9 0.9c0 20.5 11.9 36.3 28.6 36.3 16.5 0 28.6-15.5 28.6-36.7 0-16-7.8-36-28.1-36-20.3 0-29.1 18.6-29.1 36.4zm121.3-47.2l18.4 53c3.1 8.3 5.7 16.2 7.6 24h0.7c2.2-7.8 4.8-15.7 7.9-24l18.4-53h17.9l-37 94.2h-16.4l-35.8-94.2zm158.1 94.2l-1.5-11.9h-0.5c-5.2 7.4-15.2 13.8-28.8 13.8-19.1 0-28.8-13.3-28.8-26.9 0-22.7 20.2-35.3 56.7-35.1v-1.9c0-7.8-2.2-21.7-21.5-21.7-8.8 0-17.8 2.7-24.5 6.9l-3.8-11.2c7.8-5.2 19-8.3 31-8.3 28.8 0 35.7 19.5 35.7 38.4v35.3c0 8.1 0.5 16.2 1.7 22.6zm-2.6-48.2c-18.6-0.4-39.8 2.9-39.8 21.3 0 10.9 7.3 16.2 15.9 16.2 12.4 0 20.1-7.7 22.9-15.8 0.5-1.6 1-3.5 1-5.4zm83.6-73v27h24.6v13.1h-24.6v50.7c0 11.7 3.4 18.2 12.9 18.2 4.5 0 7.9-0.5 10-1l0.7 12.6c-3.3 1.5-8.5 2.4-15.2 2.4-7.9 0-14.3-2.4-18.4-7.1-5-5-6.6-13.4-6.6-24.6v-51.2h-14.6v-13.1h14.6v-22.5zm71.8 11c-5.8 0-10.6-4.7-10.6-10.6 0-5.9 4.8-10.6 10.6-10.6 5.9 0 10.7 4.7 10.7 10.6 0 5.9-4.8 10.6-10.7 10.6zm8.7 16v94.1h-17.1v-94.1zm133.2 46.2c0 34.8-24 50.1-46.7 50.1-25.5 0-45.3-18.8-45.3-48.4 0-31.7 20.8-50.1 46.7-50.1 27.2 0 45.3 19.6 45.3 48.4zm-74.6 1c0 20.7 11.9 36.2 28.6 36.2 16.5 0 28.6-15.5 28.6-36.7 0-15.7-8.1-36-28.1-36-20.3 0-29.1 18.6-29.1 36.5zm118.5-21.7c0-9.8-0.2-17.9-0.7-25.5h15.2l1 15.5h0.2c4.8-8.8 15.8-17.7 31.3-17.7 13.1 0 33.3 7.7 33.3 40.1v56.2h-17.1v-54.3c0-15.3-5.7-27.9-22-27.9-11.2 0-20 8.1-22.8 17.6-0.8 2.2-1.2 5-1.2 7.9v56.7h-17.2zm127.5 51c5.3 3.4 14.1 7 22.7 7 12.4 0 18.4-6.2 18.4-14.1 0-8.1-5.1-12.6-17.7-17.2-16.9-6.2-24.8-15.5-24.8-26.7 0-15.2 12.2-27.6 32.4-27.6 9.6 0 17.9 2.6 23.2 5.7l-4.3 12.6c-3.6-2.3-10.5-5.4-19.1-5.4-10.2 0-15.7 5.7-15.7 12.8 0 7.7 5.5 11.2 17.8 15.8 16.3 6.4 24.6 14.5 24.6 28.6 0 16.4-12.9 28.1-35 28.1-10.5 0-20.1-2.6-26.7-6.4z"/></svg>