<svg version="1.2" xmlns="http://www.w3.org/2000/svg" viewBox="0 0 1524 289" width="1524" height="289">
	<title>Cadence-Logo-svg</title>
	<style>
		.s0 { fill: #d21c2e } 
		.s1 { fill: #231f20 } 
	</style>
	<g id="Layer">
		<path id="Layer" class="s0" d="m209.6 0.9h116.5v32h-116.5z"/>
		<g id="Layer">
			<path id="Layer" fill-rule="evenodd" class="s1" d="m112.5 281.7c-6.2 3.3-17.3 6.6-32.2 6.6-47.7 0-79.4-35.2-79.4-101.2 0-60.1 33.3-105.2 86.5-105.2 11.9 0 19.6 2.8 25.1 5.8v34.9c-4.4-1.8-14.5-4.5-24.2-4.5-28.7 0-43.5 31.2-43.5 68.1 0 41 16.6 66 43.5 66 8.1 0 17.8-1.6 24.2-4.7zm213.5-44.6c0 15.5 1 35.4 3.1 48.7h-86.2c-28.8 0-50.5-23.9-50.5-59.1 0-51.6 43.6-73.3 89.1-73.7v-3.6c0-20.9-8.2-35.6-30-35.6-14.4 0-30.8 4.2-41.7 11.2v-30.1c9.9-6.2 26.8-14.3 51.2-14.3 51.8 0 65 33.6 65 76.3zm-43.3 16v-70.8c-17.2 0.2-48.3 5-48.3 39.9 0 22.7 12.1 30.8 21.8 30.8z"/>
		</g>
		<g id="Layer">
			<path id="Layer" fill-rule="evenodd" class="s1" d="m566.8 285.8l-85-0.1c-38.9 0-60.7-40.9-60.7-101.4 0-70.4 30.3-104.2 62.7-104.2 16.6 0 28.8 7.9 35.2 21.8h0.8v-80.5h43.9v215.7c0 15.5 1 35.3 3.1 48.7zm-47-125.7c0-3.8 0-8.3-0.6-12.3-1.9-16.2-10.9-30.4-23.9-30.4-22.3 0-30.3 31.6-30.3 67.5 0 40.1 10.7 67.9 29.2 67.9h25.6zm181.6 37c0.5 44.9 21.3 57 44.8 57 14.7 0 30.2-3.3 39.2-7.1v31.7c-12.6 5.9-28.8 9.4-47.2 9.4-51.8 0-79.6-37.5-79.6-99.6 0-66.4 31.8-106.8 74.8-106.8 42.2 0 63.5 38.1 63.5 91.9 0 11.5-0.4 17.9-1.1 23.4zm54.7-31.3c0.3-32.2-10.3-51.3-25.9-51.3-19.1 0-27.8 27.8-28.6 51.3zm179.9-46.8v166.9h-44v-144.1c0-22.6-1.2-40.4-1.8-58.2h86.8c33.5 0 53.5 24.4 53.5 70.9v131.4h-44.1v-127.2c0-20.1-4.3-39.6-23.4-39.6zm299.6 162.7c-6.2 3.3-17.3 6.6-32.2 6.6-47.7 0-79.4-35.3-79.4-101.3 0-60.1 33.3-105.2 86.5-105.2 11.9 0 19.6 2.9 25.1 5.8v35c-4.4-1.8-14.5-4.5-24.2-4.5-28.7 0-43.5 31.1-43.5 68.1 0 41 16.6 66 43.6 66 8.1 0 17.7-1.6 24.1-4.8zm215.4-84.7l-94.4 0.1c0.5 44.9 21.3 57 44.8 57 14.7 0 30.2-3.3 39.2-7.1v31.7c-12.6 5.9-28.8 9.4-47.2 9.4-51.8 0-79.7-37.5-79.7-99.6 0-66.4 32-106.8 74.9-106.8 42.2 0 63.5 38.1 63.5 91.9 0 11.5-0.4 17.9-1.1 23.4zm-39.7-31.2c0.3-32.2-10.2-51.3-25.9-51.3-19.1 0-27.7 27.8-28.6 51.3zm85.8-156.5c14.5 0 26.4 13.6 26.4 30.2 0 16.6-11.9 30.1-26.4 30.1-14.7 0-26.5-13.5-26.5-30.1 0-16.6 11.8-30.2 26.5-30.2zm0 55.8c12.2 0 21.4-11.2 21.4-25.6 0-14.5-9.2-25.6-21.4-25.6-12.3 0-21.4 11.1-21.4 25.6 0 14.4 9.1 25.6 21.4 25.6zm-10.2-43.3h11.9c7.1 0 10.7 3.2 10.7 9.9 0 5.7-3.2 9.8-8.1 9.8l8.8 15.6h-5.3l-8.7-15.6h-4.2v15.6h-5.1zm5.1 15.2h6c3.9 0 6.4-0.9 6.4-5.5 0-4-3.2-5.2-6.4-5.2h-6z"/>
		</g>
	</g>
</svg>