<svg version="1.2" xmlns="http://www.w3.org/2000/svg" viewBox="0 0 1552 592" width="1552" height="592"><style>.a{fill:#ff552e}.b{fill:#231815}.c{fill:#f0f1f2}.d{fill:#bcbcbc}.e{fill:#fff}.f{fill:#2d0a03;stroke:#231815;stroke-width:20.4}.g{fill:#f8c100}.h{fill:#e9e9e9}</style><path class="a" d="m978.2 387.9l-5 40.8h-74.8l5-40.8h-290.9l6.7-31.5c1.1-5.5 5.8-9.4 11.3-9.4h277.9l35.2-286.7c1.4-11.2 10.3-19.5 20.7-19.5h56.6l-37.7 306.2h58.1l-4.2 28.8c-0.9 6.9-6.6 12.1-13.4 12.1zm309.7-224.9h-89.5l7.5-40.5h243.9l21.2-41h-273.7l-9.2 20.6h-72.6l15-46.5c6.1-9.1 17.4-14.6 29.6-14.7l48.7-0.1h334.9c7 0 9.5 6.3 7.2 11.6l-29.1 70.1h23.1l-21.5 197.1q-2.7 19.7-16.4 33.8-13.8 14.1-31 14h-358.9q-17.3 0.1-27.2-14-9.9-14.1-7.2-33.8l27.2-197.1h76.8l-12.5 102.1h106.4zm173 61.6l8.4-61.6h-99.7l-7.4 61.6zm-5.6 40.8h-97.9l-7.4 61.4h79.1q7.3 0 13.4-6.1 6-6.1 7.3-15.2zm-286.1 0l-4.9 40.1q-1.3 9.1 3.1 15.2 4.4 6.1 12.1 6.1h88.8l7.4-61.4zm343.9 163.3h-451.4l6.9-31.4c1.2-5.5 6.1-9.4 11.7-9.4h451l-4.3 28.8c-0.9 6.9-6.9 12-13.9 12zm-859.7-347l265.4 39.9-8.2 41.7-207.9-31.2c-16.9-2.5-31.3-12.8-38.2-27.4zm-20.4 122.4l265.4 34.7-6.3 47-208.5-27.2c-16.7-2.2-31.3-13.1-38.7-29z"/><path  d="m605 460.3c0.9-6.4 6.4-11.2 13-11.2h22.9q25.9 0 39.6 13.9 13.7 13.9 13.7 35.8 0 22.6-14 37.5-14 14.9-34.7 14.9h-48.7c-2.2 0-4.1-1.9-4.1-4.1q0-0.3 0.1-0.6zm18.1 9.2l-10.6 61.3h23q18 0 28.1-9.1 10.2-9 10.2-23.1 0-12.9-10.5-21-10.5-8.1-28.4-8.1zm147.1-20.4q20.5 0 33.5 12.7 13 12.7 13 32.7 0 25.1-15.3 40.9-15.3 15.8-39.1 15.8-20.7 0-34.2-13.1-13.5-13-13.5-33.2 0-24 15.8-39.9 15.8-15.9 39.8-15.9zm-7.8 81.7q14.1 0 24-10.1 9.9-10.1 9.9-24.5 0-11.6-7.8-19.1-7.7-7.6-19.6-7.6-13.9 0-23.9 10.1-10 10.1-10 24.1 0 12 7.7 19.5 7.6 7.6 19.7 7.6zm176.8-81.7l-9.1 62.7q-5.6 39.1-47.4 39.1-22 0-33.8-9.7-11.8-9.6-11.8-26.9 0-3.8 0.6-8l6.9-46.2c0.9-6.3 6.4-11 12.9-11h10.6l-8.3 56.9q-0.4 2.9-0.4 5.4 0 10.4 6.5 15.7 6.5 5.2 16.9 5.2 10.5 0 17.4-5.7 6.8-5.7 8.4-16.6l7.2-49.9c0.9-6.3 6.4-11 12.9-11zm102.1 0l-38.5 59.3-5.9 42.8h-21.7l6-42.8-21.6-59.3h12.4c5.5 0 10.5 3.6 12.3 8.9l10.2 30.5 19.8-33.1c2.4-3.9 6.6-6.3 11.2-6.3zm102.1 0l-9.1 62.8q-5.6 39.3-47.4 39.3-22 0-33.8-9.7-11.8-9.7-11.8-27 0-3.9 0.6-8.1l6.9-46.3c0.9-6.3 6.4-11 12.9-11h10.6l-8.4 57.1q-0.3 2.8-0.3 5.4 0 10.4 6.5 15.7 6.5 5.3 16.8 5.3 10.6 0 17.4-5.8 6.9-5.7 8.4-16.7l7.2-50c0.9-6.3 6.5-11 13-11zm10.2 102.1c-5.6 0-10.2-4.6-10.2-10.2 0-5.7 4.6-10.2 10.2-10.2 5.6 0 10.2 4.5 10.2 10.2 0 5.6-4.6 10.2-10.2 10.2zm112.3-98.5l-3.1 18.4q-10.5-3.6-21.4-3.6-17.9 0-27.8 11.5-9.9 11.6-9.9 27.2 0 12.1 6.8 19.4 6.8 7.2 18.4 7.2 14.3 0 32.2-11.6l-2.7 22.1q-15.8 7.9-31.1 7.9-19.3 0-31.2-12.6-11.9-12.6-11.9-32.9 0-24.9 16.1-40.8 16.1-15.8 41.6-15.8 11.2 0 24 3.6zm76-3.6q20.5 0 33.5 12.7 13 12.7 13 32.7 0 25.1-15.3 40.9-15.3 15.8-39.1 15.8-20.7 0-34.2-13.1-13.5-13-13.5-33.2 0-24 15.8-39.9 15.8-15.9 39.8-15.9zm-7.8 81.7q14.1 0 24-10.1 9.9-10.1 9.9-24.5 0-11.6-7.8-19.1-7.7-7.6-19.6-7.6-13.9 0-23.9 10.1-10 10.1-10 24.1 0 12 7.7 19.5 7.6 7.6 19.7 7.6zm192.2-81.7l5 102.1h-22.1l-3.6-69-39.8 69h-10.9l-19.2-71-24.3 71h-23l35.1-102.1h25l17.3 64.2 36.2-64.2z"/><path class="b" d="m646.3 103.5c4.9-0.9 7.3-6.6 4.5-10.9l-7.4-11.1c-19.6-29.4-44.4-51.3-73.6-65-23.3-11-48.9-16.5-76.1-16.5-24.4 0-45.7 4.6-59.3 9.6-11.7-3-39.1-8.9-75-8.9-33.3 0-65.7 5-96.3 15-37.9 12.3-72.5 30.8-103 54.9-24.3 19.3-45.9 42.2-64.3 68.1-31.4 44.2-42.3 81.7-42.8 83.3l-1.1 3.8c-1.3 4.4 0.4 9.1 4.2 11.6l3.3 2.2c35.5 23.9 81.1 37.6 125.2 37.6 28.4 0 56.3-5.5 82.7-16.2 61.7-25.2 96.4-67.7 114.5-98.8q2.6-4.4 4.8-8.7c0.5 14.8-0.7 32.1-5.3 51.1-9.4 38.6-29.1 70.8-58.7 95.9-22.3 19-42.3 26.5-42.5 26.6l-5.6 2.1-2.8 5.3c-3.2 6-18.5 37.4-6.6 67.1 3.7 9.2 12.3 14.7 23.1 14.7 10.2 0 21.6-4.8 30.8-10 4.9 5.7 8.7 9.3 12 12.1-1.1 12.8-8.8 19.4-17.7 27-7.1 6.1-16.1 7.9-25.1 7.9-16.3-25.7-40.1-32.2-69.6-32.2-12.1 0-23.8 2.6-34.8 7.7-12.6 5.9-12 24.2 1 29.2 0.3 0.1 37.7 15 59.8 45.6 21.4 29.5 9 59.7 8.1 61.7l-8.2 17.4c-2.3 4.8 1.9 10.1 7 8.9l18.8-4.2c7.6-1.7 27.5-7.5 46.8-24.2 16.8-14.6 28.6-33.8 34.6-56.1 37.9-6.1 72.8-19.9 104-41 31.8-21.6 59.1-50.9 78.8-84.7 20-34.5 32.4-73.8 35.7-113.7 3.1-38.2-2.1-77.1-15.1-113.1 34.1-39.9 77.7-48.6 78.1-48.7z"/><path class="c" d="m338.8 493.1c167.1-20.3 257.7-193.6 198.4-341.2 39.2-51.5 93.2-61.3 93.2-61.3-63.6-95.7-166.6-76.6-195.1-64.1-13.3-4-85.7-22.2-167.4 4.4-158.5 51.7-199.9 195.7-199.9 195.7 45.4 30.5 119.4 50 193.4 19.9 111.7-45.6 130.2-150.2 130.2-150.2 0 0 20.7 47.2 4.9 112.2-24.8 102.3-111 133.7-111 133.7-4.2 7.9-14.5 32.3-5.9 53.6 4.2 10.6 25.1 2.4 42.8-10 14.5 18.7 20.5 22.2 24.3 25 0.8 20.8-7.2 35.2-21.4 47.4-14.4 12.3-29.4 17.4-39.8 19.5-17.2-37.1-60.3-50.6-95.1-34.3 0 0 41.5 16.1 66.8 51 27.7 38.2 9.8 77.7 9.8 77.7 20.1-4.5 62.4-24.6 71.8-79z"/><path class="d" d="m283.9 26.3c75-19.6 139-3.6 151.4 0.2 11.2-4.9 33.7-10.8 60.7-10.5-24.8 2.3-39.2 9.2-49.9 13.4q-0.8 0.3-1.5 0.6v0.4c22.7 14.7 37 35.7 37 35.7-45.9-58.4-167-36.4-186.3-30.9-3.1-3-7.8-6.5-11.4-8.9z"/><path class="d" d="m619.3 93.5c-17.8 5.8-53.8 21.3-82.1 58.4 17.9 44.5 22.1 91.4 14.8 135.6q-1.7 5.6-3.8 11c10-88.6-19.9-143.2-47.8-193.8 20.9 24.5 24.7 32.3 24.7 32.3 35.9-36.6 97.5-45.7 97.5-45.7q-1.7 1.1-3.3 2.2z"/><path class="b" d="m393.6 210.6c13.9-46.8-3.9-79-3.9-79-13.5 51.1-38.7 88.8-92.6 117.4-39 20.7-106.8 24.4-106.8 24.4l92 50.7c56.4-13 94-55.4 111.3-113.5z"/><path class="e" d="m384.3 139c7.3 30.4 2.8 52.2 0.1 57.3-3.7 7-17.6-2.7-17.6-2.7 0 0 5.7 46.5 0.2 52.1-5.6 5.6-33.5-15.4-33.5-15.4 0 0 13 49.3 3.7 55.5-9.2 6.3-53.1-28.2-53.1-28.2 0 0 14.6 56.3 5.5 58.8-8.1 2.3-20.8-1.5-34.5-7.9l-21.3-11.3c-15.1-8.9-29.2-18.6-37.4-24.5 17.5-1 59.8-6.1 97.1-30.2 49.5-32 81.3-71 90.8-103.5z"/><path class="f" d="m287.1 292.9c56.5 35.2 72.6 96.8 40.5 141.5-32.1 44.7-95 48.3-145.6 4.8-45.5-39-66.2-104.1-39.7-140.9 26.5-36.9 94-37.1 144.8-5.4z"/><path class="b" d="m353 361.3c-10.2-34.6-37.8-65.9-73.8-83.8-58.3-28.9-124.6-16.1-150.9 29.3-25.8 44.4-4.2 108.5 49.1 146 31.3 22 68.8 31.6 101.8 26.6q3.6-0.6 7-1.3c26.1-5.8 46.6-20.4 59.2-42.2 12.7-21.8 15.4-48.4 7.6-74.6z"/><path class="g" d="m272.5 286.2c59.5 29.5 88.8 94.7 61.1 142.4-27.6 47.6-97.3 51.8-151.8 13.5-49-34.4-68.4-91.6-45.5-130.9 22.8-39.3 82.6-51.6 136.2-25z"/><path class="b" d="m257.2 277.2c0 0-96.4 21.8-101.6 142l3.9 5.3c0 0-4.4-37.2 37.8-91.8 33.5-43.4 61.8-53.8 61.8-53.8z"/><path class="b" d="m113.8 407.7c-62.5-31.7-102.7-73.7-92.2-98.6 11.8-27.6 81.6-23.7 155.9 8.6q9.1 4 17.6 8.2c1.9-2.7 3.8-5.4 5.9-8q-10.2-5.1-21-9.8c-84.4-36.8-163.7-41.2-177.1-9.9-9.4 22.1 16.5 56.1 62.1 87.1 18 12.2 37.8 17.5 48.8 22.4z"/><path class="c" d="m362 304.9c-24.9 33.4-64.5 54.9-109 54.9q-5.1 0-10.1-0.3l-0.1-0.1c22 27.3 55.5 44.7 93 44.7 57.3 0 105.3-40.8 117-95.4z"/><path class="b" d="m262.6 367.3v0.1q4.8 4.1 9.9 7.6c4.3 3 8.7 5.7 13.4 8 4.6 2.3 9.4 4.3 14.3 5.9 4.9 1.7 9.9 3.1 15 4.1 5.1 1.1 10.2 1.7 15.4 2l5.1 0.2c-0.1 0 0.4 0-0.3 0h0.2 0.5l2.1-0.1 8.3-0.3c5-0.5 10-1 15.1-2.2 2.6-0.4 5.1-1.1 7.6-1.9 2.5-0.7 5.1-1.3 7.5-2.4 2.4-1 4.9-1.7 7.3-2.8l7.2-3.4c4.6-2.5 9.3-5.1 13.5-8.3 2.3-1.4 4.4-3.1 6.4-4.8 2.2-1.6 4.3-3.3 6.2-5.2 4-3.5 7.6-7.6 11.2-11.6 3.4-4.3 6.9-8.6 9.7-13.3 1.6-2.2 2.9-4.7 4.3-7.1 1.4-2.4 2.8-4.8 3.8-7.4 2.5-5 4.5-10.3 6.5-15.7-0.8 5.6-1.5 11.4-3.2 16.9-0.6 2.9-1.5 5.6-2.5 8.3-1 2.8-1.9 5.5-3.2 8.1-2.3 5.4-5.2 10.4-8.2 15.5-3.3 4.9-6.7 9.7-10.6 14.1-1.8 2.3-3.9 4.4-6 6.5-2.1 2.1-4.2 4.2-6.6 6-4.4 3.9-9.3 7.2-14.3 10.6-5.1 3-10.3 6-15.8 8.3-2.7 1.3-5.6 2.2-8.4 3.2-2.8 1-5.7 2-8.6 2.6-2.9 0.7-5.7 1.6-8.8 2l-9.2 1.5c-2.9 0.3-5.6 0.4-8.4 0.5l-2.7 0.2h-0.9-1.1l-4.5-0.1c-6-0.3-12-0.9-17.9-2-6-1.1-11.8-2.6-17.5-4.5-11.5-3.9-22.2-9.7-32.1-16.6-4.8-3.6-9.6-7.3-13.8-11.6-2.3-2.2-4.5-4.6-6.6-7-2.4-1.9-5.5-5.7-5.9-7.2-2.5-3.5-1.9-8.3 1.4-11.1 2.2-1.9 5-2.4 7.6-1.7q0.2 0 0.5 0.1l6.2 0.4c2.3 0.1 5.3 0 7.8 0 5.4-0.1 10.8-0.4 16.1-1.1l8-1.3 7.9-1.9c5.2-1.4 10.5-2.9 15.5-5 2.6-1 5.2-1.9 7.6-3.2 2.5-1.1 5-2.3 7.4-3.6 4.9-2.5 9.7-5.4 14.3-8.6 2.3-1.5 4.5-3.3 6.8-4.9 2.3-1.7 4.3-3.6 6.5-5.4 4.3-3.7 8.5-7.6 12.4-11.8-3 4.9-6.1 9.8-9.8 14.3-1.9 2.2-3.7 4.6-5.7 6.7-2 2.1-4 4.3-6.2 6.2-4.3 4-8.8 7.8-13.6 11.2-2.4 1.8-4.9 3.3-7.4 4.9-2.5 1.6-5.1 2.9-7.7 4.4-5.3 2.8-10.7 5.2-16.3 7.3l-8.5 2.7-8.7 2.2c-5.1 1.1-10.3 2-15.5 2.5z"/><path fill-rule="evenodd" class="b" d="m252.7 158.9c-39.5 0-71.4-33-71.4-73.9 0-40.9 31.9-73.9 71.4-73.9 39.4 0 71.3 33 71.3 73.9 0 40.9-31.9 73.9-71.3 73.9z"/><path fill-rule="evenodd" class="h" d="m261.5 158.9c-34.6 0-62.6-28.9-62.6-64.7 0-35.9 28-64.8 62.6-64.8 34.6 0 62.5 28.9 62.5 64.8 0 35.8-27.9 64.7-62.5 64.7z"/><path fill-rule="evenodd" class="e" d="m264.2 150.8c-31.9 0-57.7-25.7-57.7-57.5 0-31.8 25.8-57.5 57.7-57.5 31.8 0 57.6 25.7 57.6 57.5 0 31.8-25.8 57.5-57.6 57.5z"/><path fill-rule="evenodd" class="b" d="m264.2 141.1c-26.6 0-48-21.3-48-47.8 0-26.4 21.4-47.8 48-47.8 26.5 0 47.9 21.4 47.9 47.8 0 26.5-21.4 47.8-47.9 47.8z"/><path fill-rule="evenodd" class="e" d="m294.1 122.2c-13.9 0-25.2-11.3-25.2-25.1 0-13.9 11.3-25.2 25.2-25.2 13.9 0 25.2 11.3 25.2 25.2 0 13.8-11.3 25.1-25.2 25.1z"/><path fill-rule="evenodd" class="e" d="m226.6 92.7c-7.8 0-14.1-6.3-14.1-14.1 0-7.8 6.3-14 14.1-14 7.8 0 14.1 6.2 14.1 14 0 7.8-6.3 14.1-14.1 14.1z"/></svg>