<svg version="1.2" xmlns="http://www.w3.org/2000/svg" viewBox="0 0 1601 235" width="1601" height="235">
	<title>Electronic_Arts_2020-svg</title>
	<style>
		.s0 { fill: #ff4747 } 
	</style>
	<g id="g854">
		<path id="path2" fill-rule="evenodd" class="s0" d="m1562.8 130.3c17.4 4.5 38.2 10.2 38.2 31.4 0 19.6-18.4 32-41.9 32-25.9 0-45.1-15.5-47.3-37.3h23.7c1.4 10.6 11 17.7 23.6 17.7 9.4 0 16.2-4 16.2-10 0-7.3-10.6-9.9-23.1-13.2-17.4-4.5-38.2-10.2-38.2-32 0-19.6 17.2-31.2 39.4-31.2 25.1 0 43.7 15.3 46 37.1h-23.7c-1.7-10.6-10.6-17.5-22.7-17.5-7.1 0-13.7 3.2-13.7 9.4 0 7.5 10.9 10.3 23.5 13.6zm-152.5-40.3h-25.9v101.7h25.9v-53.9c0-13.8 12.3-28.3 33.1-25v-24.7c-15.7-1.8-27 6.9-33.1 20.2zm-179.1 101.7h29l14.1-30.4h59.6l14.5 30.4h29.8l-73.5-148.8zm53.3-52.2l19.2-41.5 19.8 41.5zm-121.7-9.5h26.3c-4.9-24.7-26.1-42-51.4-42-29.4 0-53.3 22.2-53.3 53 0 30.5 23.9 52.8 53.3 52.8 25.3 0 46.5-16.6 51.4-41.2h-26.3c-4.1 11-13.7 17.9-25.1 17.9-15.3 0-27.6-12-27.6-29.1 0-17.6 12.3-29.4 27.6-29.4 11.4 0 21 6.9 25.1 18zm-115.8 61.7h25.9v-101.7h-25.9zm29.6-131c0-9.3-7.5-16.8-16.7-16.8-9.2 0-16.6 7.5-16.6 16.8 0 9.2 7.4 16.7 16.6 16.7 9.2 0 16.7-7.5 16.7-16.7zm-112.5 41.9v-12.6h-25.9v101.7h25.9v-61.5c0-11.9 9.2-21.2 21.3-21.2 12.4 0 21.2 8.9 21.2 22.2v60.5h25.9v-62.6c0-23.8-13.7-41.3-38-41.3-13 0-24.3 5.7-30.4 14.8zm-37.5 38.4c0-30.8-24.1-53-53.9-53-29.8 0-53.9 22.2-53.9 53 0 30.5 24.1 52.7 53.9 52.7 29.8 0 53.9-22.2 53.9-52.7zm-25.7 0.2c0 17.1-12.5 29.1-28.2 29.1-15.7 0-28.2-12-28.2-29.1 0-17.6 12.5-29.4 28.2-29.4 15.7 0 28.2 11.8 28.2 29.4zm-116.1-51.2h-25.9v101.7h25.9v-53.8c0-13.9 12.2-28.3 33.1-25.1v-24.6c-15.8-1.9-27 6.9-33.1 20.1zm693-29.7l-25.5 8.1v97.1c0 15.7 11 26.3 29.8 26.3h25.3v-23.1h-18c-7.9 0-11.6-3.6-11.6-10.4v-46.2h29.6v-22.1h-29.6zm-758.4 0l-25.6 8.2v97c0 15.7 11.1 26.3 29.8 26.3h25.4v-23h-18c-8 0-11.6-3.7-11.6-10.4v-46.3h29.6v-22h-29.6zm-60.2 69.7h26.3c-4.9-24.7-26.1-42-51.4-42-29.4 0-53.3 22.2-53.3 53 0 30.6 23.9 52.8 53.3 52.8 25.3 0 46.5-16.5 51.4-41.2h-26.3c-4.1 11-13.7 18-25.1 18-15.4 0-27.6-12.1-27.6-29.2 0-17.5 12.2-29.3 27.6-29.3 11.4 0 21 6.9 25.1 17.9zm-87.2 15.5c0-39.1-27.7-57.7-53.1-57.7-29.2 0-52.8 22.2-52.8 53 0 30.6 24.9 53 55.5 53 22.7 0 41-12.8 48.8-32.4h-28.8c-4.3 6.3-11.6 9.4-19.6 9.4-13.9 0-25.3-8.6-28.8-21.4h78.6c0-1.5 0.2-2.7 0.2-3.9zm-78.6-14.7c3.5-12.4 13.5-20.4 25.5-20.4 12.1 0 22.7 8.4 25 20.4zm-64.8 61h25.9v-150.9l-25.9 8.2zm-115.5 0h103.7v-24.7h-75.2v-34.8h60.9v-24.7h-60.9v-33.4h75.2v-25.1h-103.7z"/>
		<g id="g6397">
			<g id="g6399">
				<path id="path6401" fill-rule="evenodd" class="s0" d="m118.5 234.8c-65 0-117.5-52.5-117.5-117.4 0-64.9 52.5-117.4 117.5-117.4 65 0 117.5 52.5 117.5 117.4 0 64.9-52.5 117.4-117.5 117.4zm19.9-162.8h-66.4l-10.1 16.2h66.4zm13.5 0.1l-40.6 64.6h-45l10.4-16.2h27l10.3-16.2h-62.4l-10.3 16.2h14.8l-20.6 32.4h85.6l31.7-49.9 11.5 17.5h-10.4l-9.9 16.2h30.8l10.7 16.2h19.6z"/>
			</g>
		</g>
	</g>
</svg>