<?xml version="1.0" encoding="UTF-8"?>
<svg width="93px" height="28px" viewBox="0 0 93 28" version="1.1" xmlns="http://www.w3.org/2000/svg" xmlns:xlink="http://www.w3.org/1999/xlink">
    <title>资源 1@2x-833</title>
    <g id="页面-1" stroke="none" stroke-width="1" fill="none" fill-rule="evenodd">
        <g id="安巡云软件-行业应用系统" transform="translate(-359.000000, -22.000000)" fill="#1C1C1C" fill-rule="nonzero">
            <g id="资源-1@2x-833" transform="translate(359.000000, 22.000000)">
                <path d="M19,0.0149724192 C18.9550827,0.0898345154 18.9251379,0.179669031 18.8502758,0.254531127 C12.6367218,6.45311269 6.40819543,12.6516942 0.179669031,18.8502758 C0.119779354,18.8951931 0.0598896769,18.9401103 0,19 L0,0.0149724192 L4.23719464,0.0149724192 C4.11741529,0.149724192 4.01260835,0.299448385 3.87785658,0.419227738 C3.48857368,0.808510638 3.09929078,1.19779354 2.71000788,1.58707644 C2.7249803,1.60204886 2.73995272,1.6319937 2.75492514,1.64696612 C3.428684,1.10795902 4.08747045,0.553979511 4.76122931,0.0149724192 L8.47438928,0.0149724192 C8.41449961,0.104806935 8.35460993,0.209613869 8.27974783,0.284475965 C7.15681639,1.40740741 6.03388495,2.51536643 4.92592593,3.63829787 C4.85106383,3.71315997 4.79117415,3.78802206 4.73128448,3.84791174 C4.73128448,3.84791174 4.76122931,3.87785658 4.76122931,3.87785658 C6.33333333,2.59022853 7.89046493,1.30260047 9.46256895,0 L12.7714736,0 C12.6966115,0.0898345154 12.6217494,0.19464145 12.5319149,0.284475965 C10.7052797,2.11111111 8.86367218,3.93774626 7.03703704,5.7643814 C6.94720252,5.85421592 6.84239559,5.94405043 6.73758865,6.01891253 C6.75256107,6.03388495 6.78250591,6.04885737 6.79747833,6.07880221 C9.25295508,4.05752561 11.7084318,2.0212766 14.1639086,0 L18.9850276,0 L19,0.0149724192 Z" id="路径"></path>
                <path d="M22.6519221,0 L22.6519221,9.25436277 L32,9.25436277 L32,18.6271814 L22.6519221,18.6271814 L22.6519221,28 L13.2596103,28 L13.2596103,18.6567953 L4,18.6567953 C10.2074776,12.4378636 16.4296998,6.21893178 22.6519221,0" id="路径"></path>
                <path d="M84.4924712,22.2056738 C84.4171833,22.3254531 84.3569531,22.4152876 84.2816652,22.5051221 C83.1824624,24.2419228 82.0682019,25.9787234 80.9689991,27.715524 C80.8635961,27.8951931 80.7431355,27.9550827 80.5323295,27.9550827 C79.1319752,27.9550827 77.7316209,27.9550827 76.3312666,27.9550827 C76.2409212,27.9550827 76.1505757,27.9550827 76,27.9550827 C76.0752879,27.820331 76.1355182,27.7304965 76.1957484,27.6406619 C78.1080602,24.6461781 80.020372,21.6367218 81.9326838,18.6572104 C82.0531444,18.4775414 82.0380868,18.357762 81.9326838,18.178093 C80.0504872,15.2434988 78.1833481,12.2939322 76.3011515,9.35933806 C76.2409212,9.25453113 76.1806909,9.14972419 76.0903454,9.01497242 C76.2258636,9.01497242 76.316209,9.01497242 76.421612,9.01497242 C77.8219663,9.01497242 79.2223206,9.01497242 80.6226749,9.01497242 C80.8485385,9.01497242 80.9689991,9.08983452 81.0894597,9.28447597 C82.1585474,10.9613869 83.2276351,12.6382979 84.2967228,14.3152088 C84.3569531,14.4200158 84.4171833,14.5098503 84.5075288,14.6296296 C84.5828167,14.5248227 84.6430469,14.4349882 84.6882197,14.3451537 C85.7723649,12.6532703 86.8565102,10.9613869 87.9255979,9.25453113 C88.0460585,9.05988968 88.166519,9 88.3923826,9 C89.7776794,9 91.1780337,9 92.5633304,9 L92.9096546,9 C92.8343667,9.13475177 92.7741364,9.23955871 92.7139061,9.32939322 C90.8317095,12.2789598 88.9645704,15.2285264 87.0673162,18.178093 C86.9468556,18.357762 86.9317981,18.4925138 87.0673162,18.6871552 C88.979628,21.6816391 90.8919398,24.6761229 92.8042516,27.6855792 C92.8644818,27.7754137 92.9096546,27.8652482 93,27.9850276 C92.8795394,27.9850276 92.7741364,28 92.683791,28 C91.2683791,28 89.8680248,28 88.4526129,28 C88.2418069,28 88.1213463,27.9251379 88.0159433,27.7454689 C86.9167405,25.9936958 85.8024801,24.2568952 84.6882197,22.5200946 C84.6279894,22.43026 84.5677591,22.3404255 84.4924712,22.250591" id="路径"></path>
                <path d="M36,28 L36,10.0434783 L38.7148847,10.0434783 L38.7148847,23.1594203 C38.7148847,23.1594203 38.7442348,23.1594203 38.7735849,23.1594203 C38.8322851,23.0724638 38.8909853,22.9855072 38.9496855,22.884058 C41.4444444,18.6811594 43.9245283,14.4782609 46.4192872,10.2608696 C46.5366876,10.0724638 46.6540881,10 46.8888889,10 C47.7106918,10 48.5324948,10 49.4129979,10 C49.3396226,10.1304348 49.2955975,10.2318841 49.2368973,10.3188406 C47.6079665,13.0869565 45.9790356,15.8550725 44.3501048,18.6231884 C44.2180294,18.8405797 44.2327044,18.9855072 44.3647799,19.1884058 C46.1698113,22 47.9748428,24.826087 49.7798742,27.6376812 C49.8385744,27.7246377 49.8972746,27.826087 50,27.9855072 L49.6918239,27.9855072 C48.8993711,27.9855072 48.1215933,27.9855072 47.3291405,27.9855072 C47.1236897,27.9855072 47.0062893,27.9275362 46.9035639,27.7536232 C45.5974843,25.6956522 44.2767296,23.6521739 42.9706499,21.5942029 C42.9119497,21.5072464 42.8532495,21.4202899 42.7798742,21.3188406 C42.0607966,22.5507246 41.3417191,23.7536232 40.6373166,24.9565217 C40.0796646,25.8985507 39.5366876,26.826087 38.9937107,27.7681159 C38.8909853,27.942029 38.78826,28 38.5974843,28 C37.7610063,28 36.9098532,28 36.0293501,28" id="路径"></path>
                <path d="M69.6023538,27.9854425 C66.0604558,28.0291149 63.3484586,25.6125781 63.0372458,22.2352496 C62.8594099,20.2699937 63.3039996,18.4939848 64.6822277,17.0091248 C65.8233413,15.7717415 67.2756676,15.1020988 68.9799282,15.0147541 C69.8394683,14.9710817 70.6990084,15.0147541 71.5437288,15.2767882 C73.8704149,15.9755458 75.6784131,18.115491 75.9303472,20.4883555 C76.0933635,21.9295431 76.0044455,23.3561733 75.293102,24.6517864 C74.211267,26.6607145 72.4921868,27.7670808 70.1655007,27.9708851 C69.9432059,27.9854425 69.720911,28 69.6023538,28 M73.21835,21.6092792 C73.1590714,21.1288833 73.1294321,20.7212747 73.0405141,20.3136661 C72.6848424,18.6250018 71.3807126,17.533193 69.676452,17.4749632 C67.8388146,17.4167334 66.4902258,18.3484103 66.0159968,20.0370745 C65.7344233,21.0415386 65.7344233,22.0605602 66.0604558,23.0504668 C66.3568489,23.9675862 66.8607172,24.7536885 67.7943556,25.1321822 C68.2685846,25.3214291 68.7872726,25.4378887 69.291141,25.481561 C71.0991391,25.6271356 72.5070065,24.6954587 72.9812355,23.0213519 C73.1146124,22.540956 73.1590714,22.0314453 73.2331697,21.5947217" id="形状"></path>
                <rect id="矩形" x="58" y="10" width="3" height="18"></rect>
                <rect id="矩形" x="52" y="15" width="3" height="13"></rect>
                <rect id="矩形" x="52" y="10" width="3" height="2"></rect>
            </g>
        </g>
    </g>
</svg>