<svg version="1.2" baseProfile="tiny-ps" xmlns="http://www.w3.org/2000/svg" viewBox="0 0 1600 304" width="1600" height="304">
	<title>Tencent_Logo-svg</title>
	<style>
		tspan { white-space:pre }
		.shp0 { fill: #0052d9 } 
	</style>
	<g id="Layer">
		<path id="Layer" fill-rule="evenodd" class="shp0" d="M1480.43 36.59L1600 132.79L1524.26 132.79L1495.07 298.74L1434.34 298.74L1463.49 132.79L1428.83 132.79L1401.93 94.21L1470.31 94.21L1480.43 36.59ZM275.89 43.45L167.85 43.45L122.97 298.75L62.24 298.75L107.12 43.45L0 43.45L7.53 0L283.43 0L275.89 43.45ZM414.45 189.06C412.78 198.68 410.46 206.39 408.53 210.79L248.05 210.79C243.2 247.88 274.07 264.05 312.91 264.05C340.77 264.05 373.66 253.7 399.51 235.18L391.29 281.93C364.83 296.63 332.27 303.18 297.46 303.18C219.56 303.18 181.05 257.3 191.93 194.63C201.74 138.19 251.15 89.61 328.34 89.61C406.35 89.61 422.22 144.28 414.45 189.06ZM318.42 124.89C281.07 124.89 260.55 153.81 254.2 174.73L359.82 174.73C363.36 155.79 359.07 124.89 318.42 124.89ZM666.91 177.26L645.53 298.74L584.79 298.74L605.1 183.34C610.18 154.01 601.17 131.65 568.03 131.65C543.9 131.65 524.87 146.19 515.8 161.98C513.18 166.23 511.17 172.49 510.16 178.4L489.04 298.74L428.32 298.74L453.28 155.04C457.39 131.41 460.01 107.34 461.98 89.62L515.44 121.21L516.85 121.21C530.24 105.33 558.63 89.62 596.53 89.62C638.37 89.62 678.14 112.58 666.91 177.26ZM1395.36 177.26L1374.01 298.74L1313.29 298.74L1333.59 183.34C1338.67 154.01 1329.66 131.65 1296.48 131.65C1272.37 131.65 1253.34 146.19 1244.26 161.98C1241.66 166.23 1239.65 172.49 1238.65 178.4L1217.52 298.74L1156.81 298.74L1181.75 155.04C1185.86 131.41 1188.5 107.34 1190.46 89.62L1243.92 121.21L1245.33 121.21C1258.72 105.33 1287.08 89.62 1325 89.62C1366.84 89.62 1406.6 112.58 1395.36 177.26ZM1142.96 189.06C1141.26 198.68 1138.93 206.39 1137.03 210.79L976.54 210.79C971.72 247.88 1002.56 264.05 1041.37 264.05C1069.27 264.05 1102.15 253.7 1127.99 235.18L1119.77 281.93C1093.32 296.63 1060.74 303.18 1025.94 303.18C948.05 303.18 909.54 257.3 920.41 194.63C930.22 138.19 979.62 89.61 1056.81 89.61C1134.81 89.61 1150.69 144.28 1142.96 189.06ZM1046.88 124.89C1009.54 124.89 989.02 153.81 982.69 174.73L1088.29 174.73C1091.85 155.79 1087.55 124.89 1046.88 124.89ZM847.89 89.73C878.83 89.73 899.73 96.88 912.79 101.9L903.38 157.5C887.26 136.28 861.68 129.97 842.83 129.97C796.54 129.97 761.03 158.78 754.71 196.28C747.43 238.21 778.72 262.28 820.05 262.28C840.35 262.28 868.95 257.57 890.04 234.87L880.23 289.54C866.69 294.56 830.98 303.16 801.06 303.16C725.83 303.16 681.38 257.22 692.39 193.73C703.04 132.5 763.48 89.73 847.89 89.73Z" />
	</g>
</svg>