<svg xmlns="http://www.w3.org/2000/svg" xmlns:xlink="http://www.w3.org/1999/xlink" width="153px" height="25px"><path fill-rule="evenodd"  fill="rgb(0, 0, 0)" d="M147.944,24.177 L147.944,14.38 C147.944,11.973 147.41,10.670 144.745,10.670 C142.415,10.670 140.360,12.595 140.360,12.595 L140.360,24.177 L136.269,24.177 L136.269,7.178 L140.326,7.178 L140.326,8.515 C140.326,8.515 142.624,6.746 145.622,6.746 C149.412,6.746 152.35,8.996 152.35,14.232 L152.35,24.177 L147.944,24.177 ZM124.427,24.609 C119.253,24.609 115.351,20.770 115.351,15.678 C115.351,10.587 119.253,6.746 124.427,6.746 C129.610,6.746 133.519,10.587 133.519,15.678 C133.519,20.770 129.610,24.609 124.427,24.609 ZM124.427,10.637 C121.590,10.637 119.529,12.756 119.529,15.678 C119.529,18.600 121.590,20.720 124.427,20.720 C127.274,20.720 129.341,18.600 129.341,15.678 C129.341,12.756 127.274,10.637 124.427,10.637 ZM108.35,0.624 L112.541,0.624 L112.541,4.980 L108.35,4.980 L108.35,0.624 ZM105.202,19.215 C105.202,22.647 102.394,24.609 97.460,24.609 C93.839,24.609 90.978,23.536 90.978,23.536 L90.978,19.877 C90.978,19.877 94.236,20.972 97.428,20.972 C99.304,20.972 101.6,20.582 100.998,19.457 C100.982,17.468 97.920,17.773 94.583,16.571 C93.55,16.20 90.763,14.563 90.785,12.102 C90.817,8.680 93.547,6.746 97.896,6.746 C101.669,6.746 104.190,7.616 104.190,7.616 L104.190,11.208 C104.190,11.208 100.607,10.384 97.930,10.384 C96.322,10.384 95.5,10.743 95.5,11.804 C95.5,13.98 96.827,13.422 99.207,13.994 C101.987,14.662 105.202,15.910 105.202,19.215 ZM88.946,19.215 C88.946,22.647 86.138,24.609 81.204,24.609 C77.583,24.609 74.722,23.536 74.722,23.536 L74.722,19.877 C74.722,19.877 77.980,20.972 81.172,20.972 C83.49,20.972 84.751,20.582 84.743,19.457 C84.727,17.468 81.665,17.773 78.328,16.571 C76.800,16.20 74.507,14.563 74.530,12.102 C74.561,8.680 77.291,6.746 81.640,6.746 C85.414,6.746 87.934,7.616 87.934,7.616 L87.934,11.208 C87.934,11.208 84.352,10.384 81.675,10.384 C80.67,10.384 78.750,10.743 78.750,11.804 C78.750,13.98 80.572,13.422 82.952,13.994 C85.732,14.662 88.946,15.910 88.946,19.215 ZM67.308,14.38 C67.308,11.973 66.405,10.670 64.110,10.670 C61.780,10.670 59.725,12.595 59.725,12.595 L59.725,24.177 L55.633,24.177 L55.633,7.178 L59.690,7.178 L59.690,8.515 C59.690,8.515 61.988,6.746 64.986,6.746 C68.777,6.746 71.399,8.996 71.399,14.232 L71.399,24.177 L67.308,24.177 L67.308,14.38 ZM47.448,22.616 C46.208,23.922 44.523,24.609 42.534,24.609 C37.711,24.609 34.76,20.770 34.76,15.678 C34.76,10.587 37.711,6.746 42.534,6.746 C44.516,6.746 46.201,7.439 47.448,8.758 L47.448,7.178 L51.524,7.178 L51.524,24.177 L47.448,24.177 L47.448,22.616 ZM42.963,10.637 C40.190,10.637 38.254,12.709 38.254,15.678 C38.254,18.648 40.190,20.720 42.963,20.720 C45.735,20.720 47.671,18.648 47.671,15.678 C47.671,12.709 45.735,10.637 42.963,10.637 ZM26.313,15.54 L26.313,24.177 L22.238,24.177 L22.238,7.178 L26.279,7.178 L26.279,9.350 C27.464,7.921 29.726,6.885 31.616,6.885 L33.281,6.885 L33.281,10.873 L32.185,10.873 C29.152,10.873 26.313,12.475 26.313,15.54 ZM0.554,0.624 L22.238,0.624 L22.238,4.980 L0.554,4.980 L0.554,0.624 ZM13.895,24.177 L8.897,24.177 L8.897,7.178 L13.895,7.178 L13.895,24.177 ZM112.334,24.178 L108.242,24.178 L108.242,7.178 L112.334,7.178 L112.334,24.178 Z"/></svg>