<svg clip-rule="evenodd" fill-rule="evenodd" stroke-linejoin="round" stroke-miterlimit="2" viewBox="0 0 560 400" xmlns="http://www.w3.org/2000/svg"><g fill="#415fff" fill-rule="nonzero"><path d="m424.137 231.409h-30.959c-17.402 0-18.95-14.343-18.95-18.725 0-4.381 1.548-18.724 18.95-18.724h30.959c17.403 0 18.95 14.343 18.95 18.724 0 4.382-1.547 18.725-18.95 18.725m.672-53.154h-31.095c-32.315 0-35.19 26.372-35.19 34.429 0 8.058 2.875 34.43 35.19 34.43h31.095c32.317 0 35.191-26.372 35.191-34.43 0-8.057-2.874-34.429-35.191-34.429"/><path d="m352.308 180.671h-10.081c-4.318 0-5.207.726-6.871 3.164-1.668 2.437-30.501 45.86-30.501 45.86-.921 1.335-1.897 1.875-3.11 1.875-1.214 0-2.189-.54-3.108-1.875 0 0-28.836-43.423-30.502-45.86-1.665-2.439-2.554-3.164-6.872-3.164h-10.081c-2.319 0-3.382 1.789-1.923 3.975l34.439 51.581c5.343 7.753 9.265 10.887 18.047 10.887 8.783 0 12.704-3.134 18.048-10.887l34.438-51.581c1.46-2.186.399-3.975-1.923-3.975m-132.71 4.213c0-3.018 1.177-4.213 4.15-4.213h7.405c2.971 0 4.149 1.196 4.149 4.213v58.016c0 3.018-1.178 4.214-4.149 4.214h-7.405c-2.971 0-4.15-1.196-4.15-4.214zm-.619-18.383c-2.397-2.396-2.397-4.296 0-6.693l5.123-5.123c2.397-2.398 4.297-2.398 6.694-.002l5.126 5.124c2.395 2.398 2.395 4.298 0 6.695l-5.126 5.123c-2.397 2.397-4.297 2.397-6.692 0l-5.125-5.123zm-15.316 14.17h-10.07c-4.313 0-5.202.727-6.864 3.164-1.665 2.437-30.47 45.859-30.47 45.859-.918 1.335-1.893 1.875-3.104 1.875-1.214 0-2.188-.54-3.107-1.875 0 0-28.805-43.424-30.468-45.86-1.662-2.436-2.551-3.163-6.864-3.163h-10.07c-2.588 0-3.379 1.789-1.921 3.975 1.456 2.186 34.401 51.58 34.401 51.58 5.338 7.754 9.257 10.888 18.029 10.888 8.77 0 12.69-3.134 18.027-10.888l34.402-51.58c1.457-2.186.667-3.975-1.921-3.975"/></g></svg>