<svg version="1.2" xmlns="http://www.w3.org/2000/svg" viewBox="0 0 1545 268" width="1545" height="268">
	<title>ByteDance_logo_English-svg</title>
	<style>
		.s0 { fill: #3259b4 } 
		.s1 { fill: #3c8cff } 
		.s2 { fill: #00c8d2 } 
		.s3 { fill: #78e6dd } 
	</style>
	<g id="g68">
		<path id="path58" class="s0" d="m0 10.5l47.2 13.7v189l-47.2 13.7z"/>
		<path id="path60" class="s1" d="m74.4 107.1l46.2 11.6v101.9l-46.2 9.4z"/>
		<path id="path62" class="s2" d="m153.1 87.2l43-11.6v125l-43-12.6z"/>
		<path id="path64" class="s3" d="m224.4 0l47.2 13.7v212.1l-47.2 11.6z"/>
		<path id="path49" fill-rule="evenodd" class="s0" d="m1437.1 160.6q1.2 17.1 13.5 27.7 12.5 10.7 31.3 10.7 12.1 0 22.6-5.1 10.5-5.1 19.2-15l16 12.7q-12 13.8-26.3 20.4-14.3 6.6-32.2 6.6-14.8 0-27.6-5.3-12.8-5.3-22-15.2-8-8.6-12.3-19.9-4.3-11.5-4.3-24 0-29.5 17.8-47.8 17.8-18.3 46.6-18.3 29.3 0 47.3 19.6 18.2 19.4 18.2 51.3v1.6zm0-17.6h83.3q-2.1-15.8-13.5-25.6-11.5-9.8-27.8-9.8-16.5 0-28.4 10-11.7 9.9-13.6 25.4zm-48.8-22.8q-5.8-6.5-13.2-9.5-7.4-3.1-16.8-3.1-18.3 0-30.1 12.9-11.7 12.8-11.7 32.9 0 20.1 11.6 32.8 11.7 12.8 30.2 12.8 10 0 17.7-3.5 7.8-3.5 13.2-10.3l14.6 16.3q-10 8.9-20.9 13.1-10.9 4-24.6 4-14.1 0-26-4.6-11.9-4.6-20.6-13.4-9.4-9.3-14.2-21.2-4.7-12-4.7-26 0-14 4.7-26 4.8-12 14.2-21.2 8.8-8.9 20.6-13.4 11.8-4.7 26-4.7 13.5 0 24.3 4 11 3.9 20 11.9zm-215 95.3v-124.2h22.1v14.2q8.3-8.4 17.5-12.5 9.3-4.1 19.9-4.1 21.7 0 34.3 14.5 12.6 14.6 12.6 40.1v72h-22.4v-69.8q0-19.5-6.9-28.5-6.8-9.2-21.5-9.2-16.7 0-25.2 9.7-8.3 9.6-8.3 28.9v68.9zm-21.6 0h-21.8v-20.3q-7.8 10.9-19.1 16.5-11.1 5.4-25.5 5.4-12.9 0-24.6-4.8-11.5-5-20.6-14.4-8.6-9-13-20.3-4.3-11.3-4.3-24.6 0-28.8 17.1-46.5 17.2-17.6 45.4-17.6 14.2 0 26 5.9 11.8 5.7 20.2 16.8v-20.3h20.2zm-63.4-17.3q18.7 0 30.7-12.6 12-12.6 12-32.4 0-19.6-12-32.2-12-12.7-30.7-12.7-18.7 0-30.8 12.6-12 12.5-12 32.3 0 19.9 12 32.5 12.1 12.5 30.8 12.5zm-181.1-163.5q50.3 0 76.4 23.1 26.3 23 26.3 67.3 0 44.3-26.3 67.4-26.1 23-76.4 23h-37.1v-180.8zm-13.6 21.3v138.2h17.2q37.5 0 56.4-17.4 19.1-17.5 19.1-51.7 0-34.3-19.1-51.6-18.9-17.5-56.4-17.5zm-162.7 104.6q1.1 17.1 13.3 27.7 12.2 10.7 30.8 10.7 11.9 0 22.2-5.1 10.3-5.1 18.9-15l15.7 12.7q-11.8 13.8-25.9 20.4-14 6.6-31.6 6.6-14.6 0-27.2-5.3-12.6-5.3-21.6-15.1-7.9-8.7-12.2-20-4.2-11.5-4.2-24 0-29.5 17.5-47.8 17.6-18.2 45.9-18.2 28.8 0 46.6 19.5 17.9 19.4 17.9 51.3v1.6zm0-17.6h81.9q-2.1-15.8-13.3-25.6-11.3-9.8-27.3-9.8-16.3 0-27.9 10-11.6 10-13.4 25.4zm-57.7-82v30.3h23.9v18.5h-23.9v77.3q0 5.5 2.5 8.1 2.6 2.5 8.3 2.5h13.1v20.9h-14q-19 0-27-6.6-8-6.7-8-22.3v-79.9l-26.5-0.8-71.2 158h-22.9l22.4-51.5-53.3-124.2h25.3l32.8 78.5q0.9 1.8 2.9 8.4 2.1 6.6 5.1 17 3.3-9.9 5.6-16.6 2.3-6.8 3.2-8.8l33.3-78.5h43.3v-30.3zm-312.5 154.5v-180.8h35q20.3 0 32 1.8 11.8 1.7 19.6 5.8 13.2 6.9 20.1 17.5 6.9 10.6 6.9 23.8 0 11-6.4 20.2-6.3 9.1-18 14.9 19.2 5.5 29 17.3 10 11.7 10 28.9 0 21.4-19.2 36-19 14.6-47.6 14.6zm26.7-103h22.1q18.4 0 28.4-7.5 10.1-7.5 10.1-21.1 0-14.3-10.1-21.6-10.1-7.3-30.2-7.3h-20.3zm0 81.7h27.2q23.1 0 34.9-7.8 12-7.7 12-22.8 0-14.9-11.6-22.6-11.6-7.7-34.2-7.7h-28.3z"/>
	</g>
</svg>