<svg xmlns="http://www.w3.org/2000/svg" xmlns:xlink="http://www.w3.org/1999/xlink" viewBox="0 0 56.41 12.87"><defs><style>.cls-1{fill:#231815;}.cls-2{fill:url(#未命名的渐变_141);}.cls-3{fill:url(#未命名的渐变_30);}.cls-4{fill:url(#未命名的渐变_40);}</style><linearGradient id="未命名的渐变_141" x1="37.24" y1="12.87" x2="37.24" y2="7.66" gradientUnits="userSpaceOnUse"><stop offset="0" stop-color="#65c5da" stop-opacity="0"/><stop offset="0.49" stop-color="#92c530"/></linearGradient><linearGradient id="未命名的渐变_30" y1="5.6" x2="9.92" y2="5.6" gradientUnits="userSpaceOnUse"><stop offset="0" stop-color="#65c5da" stop-opacity="0"/><stop offset="0.49" stop-color="#bfd51a"/><stop offset="0.91" stop-color="#53b33e"/></linearGradient><linearGradient id="未命名的渐变_40" x1="7.38" y1="3.52" x2="17.31" y2="3.52" gradientUnits="userSpaceOnUse"><stop offset="0" stop-color="#d4dd00" stop-opacity="0"/><stop offset="0.3" stop-color="#00a16c" stop-opacity="0.3"/><stop offset="0.72" stop-color="#6cc8ee"/></linearGradient></defs><title>翻转极光</title><g id="图层_2" data-name="图层 2"><g id="图层_1-2" data-name="图层 1"><path class="cls-1" d="M18.46,0H23V1.16H19.71V2.54h3.2V3.7h-3.2V6.25H18.46Z"/><path class="cls-1" d="M24.28,6.25V0h1.24V5.09h3.27V6.25Z"/><path class="cls-1" d="M29.76,6.25V0H31V6.25Z"/><path class="cls-1" d="M45.05,0h4.57V1.16H46.3V2.54h3.2V3.7H46.3V5.09h3.44V6.25H45.05Z"/><path class="cls-1" d="M20.23,7.69h.71l2.39,5.13h-1l-.51-1.11H19.39l-.51,1.11H17.83Zm-.43,3.12h1.57l-.78-1.7Z"/><path class="cls-1" d="M24,7.69h1v2.62c0,1.17.31,1.59,1.18,1.59s1.18-.42,1.18-1.59V7.69h1v2.66c0,1.67-.75,2.51-2.21,2.51S24,12,24,10.35Z"/><path class="cls-2" d="M37.24,7.66a2.41,2.41,0,0,1,2.61,2.6,2.42,2.42,0,0,1-2.61,2.61,2.41,2.41,0,0,1-2.6-2.61A2.41,2.41,0,0,1,37.24,7.66Zm-1.57,2.6c0,1.1.53,1.65,1.57,1.65s1.57-.55,1.57-1.65-.52-1.65-1.57-1.65S35.67,9.17,35.67,10.26Z"/><path class="cls-1" d="M48,7.69h.71l2.39,5.13H50l-.51-1.11H47.13l-.51,1.11h-1Zm-.43,3.12h1.57l-.79-1.7Z"/><polygon class="cls-3" points="2.87 9.13 0 9.13 7.05 2.08 9.92 2.08 2.87 9.13"/><polygon class="cls-4" points="10.26 7.05 7.38 7.05 14.43 0 17.31 0 10.26 7.05"/><path d="M53.54,8.2a1.65,1.65,0,0,0-.48,1.28,2,2,0,0,0-.42,0,1.71,1.71,0,0,0-.86.45,1.68,1.68,0,1,0,2.81,1.57.08.08,0,0,0-.05-.07,1.78,1.78,0,0,1-.39-.07.42.42,0,0,0-.47.19.82.82,0,0,1-.17.2.83.83,0,1,1-.64-1.45.81.81,0,0,1,.68.24,1.63,1.63,0,0,0,1.08.48A1.67,1.67,0,1,0,53.54,8.2ZM55.32,10a.83.83,0,1,1,0-1.18A.83.83,0,0,1,55.32,10Z"/><path class="cls-1" d="M32.71,10.92a1.55,1.55,0,0,0,1-1.54c0-1.47-1.25-1.69-2-1.69H29.53v5.13h1V8.65h1.12c.82,0,1,.3,1,.73s-.16.75-1,.75h-.06v.95l1.24,1.74h1.2Z"/><path class="cls-1" d="M43.94,10.92a1.54,1.54,0,0,0,1-1.54c0-1.47-1.24-1.69-2-1.69H40.76v5.13h1V8.65h1.12c.81,0,1,.3,1,.73s-.17.75-1,.75h-.07v.95l1.25,1.74h1.2Z"/><path class="cls-1" d="M53.35,0H50.71V6.25H52V1.16h1.39c1.23,0,1.84.66,1.84,2s-.62,2-1.85,2H53V6.25h.33a2.85,2.85,0,0,0,3.06-3.13A2.84,2.84,0,0,0,53.35,0Z"/><path class="cls-1" d="M35.33,0H32.68V6.25h1.25V1.16h1.36c1,0,1.2.37,1.2.9s-.21.9-1.2.9H35V4.12h.35c.9,0,2.42-.26,2.42-2.06S36.23,0,35.33,0Z"/><path class="cls-1" d="M41.52,0H38.86V6.25h1.25V1.16h1.37c1,0,1.2.37,1.2.9s-.21.9-1.2.9h-.31V4.12h.35c.9,0,2.41-.26,2.41-2.06S42.42,0,41.52,0Z"/></g></g></svg>